<?xml version="1.0" encoding="utf-8"?>
<!-- Generator: Adobe Illustrator 21.0.0, SVG Export Plug-In . SVG Version: 6.00 Build 0)  -->
<svg version="1.1" id="Layer_1" xmlns="http://www.w3.org/2000/svg" xmlns:xlink="http://www.w3.org/1999/xlink" x="0px" y="0px"
	 viewBox="0 0 200 30" style="enable-background:new 0 0 200 30;" xml:space="preserve">
<style type="text/css">
	.st0{fill:#000001;}
</style>
<g>
	<polygon class="st0" points="87.1,8.3 99.6,20.9 107.9,12.6 107.9,27.5 112.1,27.5 112.1,2.5 99.6,15 87.1,2.5 	"/>
	<path class="st0" d="M6.4,15L18.9,2.5H13C8.8,6.7,4.6,10.9,0.5,15c4.2,4.1,8.4,8.3,12.5,12.4h5.9C10,18.6,12.5,21.1,6.4,15"/>
	<polygon class="st0" points="154,27.5 158.6,27.5 146.2,2.5 133.7,27.5 138.3,27.5 146.2,11.9 	"/>
	<polygon class="st0" points="60.8,27.5 65.4,27.5 53,2.5 40.5,27.5 45.1,27.5 53,11.9 	"/>
	<path class="st0" d="M198.1,15.5c1-1.4,1.5-3,1.5-4.7c0-2.3-0.8-4.2-2.4-5.9c-1.6-1.6-3.6-2.4-5.9-2.4h-10.9l2.1,3.7l0.5,0.5h8.3
		c1.1,0,2.1,0.4,2.9,1.2c0.8,0.8,1.2,1.8,1.2,2.9c0,1.2-0.4,2.1-1.2,3c-0.8,0.8-1.8,1.2-2.9,1.2l-3.7,0l7.2,12.5h4.8l-5.1-8.9
		C195.9,17.9,197.1,16.9,198.1,15.5"/>
</g>
</svg>
